<?xml version="1.0" encoding="UTF-8"?><svg width="48" height="48" viewBox="0 0 48 48" fill="none" xmlns="http://www.w3.org/2000/svg"><path d="M38.79 5.62503C38.6819 5.43764 38.5379 5.27343 38.3662 5.14181 38.1945 5.01019 37.9985 4.91374 37.7895 4.858 37.5805 4.80226 37.3625 4.78832 37.1481 4.81698 36.9337 4.84565 36.727 4.91635 36.54 5.02503L19.44 14.907C19.2526 15.0151 19.0884 15.1591 18.9567 15.3308 18.8251 15.5025 18.7287 15.6985 18.6729 15.9075 18.6172 16.1165 18.6033 16.3345 18.6319 16.5489 18.6606 16.7633 18.7313 16.97 18.84 17.157L19.662 18.582 39.615 7.05003 38.79 5.62503zM45.378 17.0339L41.262 9.8999 21.3 21.4319 25.41 28.5659C25.6294 28.9431 25.9894 29.2181 26.4111 29.3305 26.8328 29.443 27.2818 29.3838 27.66 29.1659L44.775 19.2809C44.9622 19.1731 45.1264 19.0294 45.258 18.858 45.3897 18.6867 45.4863 18.4911 45.5423 18.2824 45.5983 18.0737 45.6126 17.856 45.5844 17.6418 45.5562 17.4276 45.4861 17.221 45.378 17.0339V17.0339z" fill="#e8f5fe"/><path d="M7.58699 14.3429C7.08974 14.4676 6.65525 14.7698 6.3654 15.1926C6.07556 15.6154 5.95038 16.1296 6.01346 16.6384C6.07655 17.1471 6.32354 17.6152 6.70788 17.9544C7.09222 18.2936 7.58736 18.4805 8.09999 18.4799H25.452V9.55493L7.58699 14.3429Z" fill="#002f6c"/><path d="M21.3454 4.20051L11.2654 21.6596C10.8015 22.4631 11.0768 23.4906 11.8803 23.9545L23.5197 30.6745C24.3233 31.1384 25.3507 30.8631 25.8146 30.0596L35.8946 12.6005C36.3586 11.797 36.0833 10.7695 35.2797 10.3056L23.6403 3.58558C22.8368 3.12167 21.8093 3.39698 21.3454 4.20051Z" fill="#0091da"/><path d="M33.954 15.96H14.556L13.101 18.48H32.499L33.954 15.96Z" fill="#005eb8"/><path d="M25.0951 4.42576L13.3351 24.7947L16.245 26.4747L28.005 6.10576L25.0951 4.42576Z" fill="#002f6c"/><path d="M28.9275 9.54873L26.8275 13.186L29.0099 14.446L31.1099 10.8087L28.9275 9.54873Z" fill="#ffb81c"/><path d="M37.92 41.9999H7.68C7.23444 41.9999 6.80712 41.8229 6.49206 41.5078C6.177 41.1928 6 40.7654 6 40.3199V16.3799C6 16.9368 6.22125 17.471 6.61508 17.8648C7.0089 18.2586 7.54305 18.4799 8.1 18.4799H37.92C38.3656 18.4799 38.7929 18.6569 39.1079 18.9719C39.423 19.287 39.6 19.7143 39.6 20.1599V26.0399L38.76 30.2399L39.6 34.4399V40.3199C39.6 40.7654 39.423 41.1928 39.1079 41.5078C38.7929 41.8229 38.3656 41.9999 37.92 41.9999V41.9999Z" fill="#0091da"/><path d="M30.36 26.04H39.6V34.44H30.36C29.2461 34.44 28.1778 33.9975 27.3901 33.2099C26.6025 32.4222 26.16 31.3539 26.16 30.24V30.24C26.16 29.1261 26.6025 28.0578 27.3901 27.2702C28.1778 26.4825 29.2461 26.04 30.36 26.04Z" fill="#fff"/><path d="M30.36 32.76C31.7518 32.76 32.88 31.6317 32.88 30.24C32.88 28.8482 31.7518 27.72 30.36 27.72C28.9683 27.72 27.84 28.8482 27.84 30.24C27.84 31.6317 28.9683 32.76 30.36 32.76Z" fill="#002f6c"/></svg>