<?xml version="1.0" encoding="UTF-8"?><svg width="48" height="48" viewBox="0 0 48 48" fill="none" xmlns="http://www.w3.org/2000/svg"><g clip-path="url(#clip0)"><path d="M26.184 27.2999H28.644L25.002 20.8919H27.429L21.348 10.1999L17.97 16.1309L12.135 5.85889L4.95899 18.4919H7.82099L3.52199 26.0579H6.42599L1.79999 34.1999H30.105L26.184 27.2999ZM16.539 18.6509L16.449 18.4919H16.629L16.539 18.6509Z" fill="#e8f5fe"/><path d="M35.7 28.8L30.984 26.1C28.5714 24.7235 25.8416 23.9997 23.064 24H19.815C17.7842 23.9994 15.772 24.3873 13.887 25.143L5.34299 28.56C4.54914 28.8775 3.70196 29.0404 2.84699 29.04H1.91999C1.69721 29.04 1.48355 29.1285 1.32602 29.286C1.16849 29.4436 1.07999 29.6572 1.07999 29.88V32.82H0.65999C0.548599 32.82 0.441771 32.8643 0.363005 32.943C0.28424 33.0218 0.23999 33.1286 0.23999 33.24V36.18H48V33.648C47.9996 32.8366 47.7057 32.0528 47.1725 31.4413C46.6392 30.8298 45.9027 30.4318 45.099 30.321L36.6 29.1C36.2833 29.0597 35.9775 28.9578 35.7 28.8V28.8Z" fill="#0091da"/><path d="M48 33.6481C47.9987 33.3688 47.9635 33.0908 47.895 32.8201H0.65999C0.548599 32.8201 0.441771 32.8643 0.363005 32.9431C0.28424 33.0218 0.23999 33.1287 0.23999 33.2401V36.1801H48V33.6481Z" fill="#005eb8"/><path d="M46.872 31.1399H45.48C45.2572 31.1399 45.0436 31.2284 44.886 31.3859C44.7285 31.5435 44.64 31.7571 44.64 31.9799C44.64 32.2027 44.7285 32.4163 44.886 32.5739C45.0436 32.7314 45.2572 32.8199 45.48 32.8199H47.895C47.7289 32.1705 47.3727 31.5855 46.872 31.1399V31.1399Z" fill="#ffb81c"/><path d="M11.1 28.0589L14.64 26.6399C16.228 26.0062 17.9222 25.6804 19.632 25.6799H23.286C25.6242 25.6796 27.9219 26.2898 29.952 27.4499L33.174 29.2919C33.2134 29.3022 33.2504 29.3201 33.2828 29.3446C33.3153 29.3692 33.3427 29.3999 33.3633 29.435C33.3839 29.4701 33.3974 29.5089 33.403 29.5492C33.4086 29.5895 33.4062 29.6305 33.396 29.6699C33.3857 29.7093 33.3678 29.7463 33.3433 29.7788C33.3188 29.8113 33.2881 29.8386 33.253 29.8592C33.2179 29.8798 33.179 29.8933 33.1387 29.8989C33.0984 29.9046 33.0574 29.9022 33.018 29.8919H11.463C11.2371 29.9021 11.0152 29.8309 10.8373 29.6914C10.6595 29.5519 10.5375 29.3532 10.4936 29.1315C10.4497 28.9097 10.4867 28.6796 10.598 28.4828C10.7092 28.286 10.8873 28.1356 11.1 28.0589V28.0589Z" fill="#fff"/><path d="M33.174 29.2921L29.952 27.4501C28.765 26.773 27.481 26.2823 26.145 25.9951L22.26 29.8801H33.018C33.096 29.9008 33.179 29.8897 33.2487 29.8492C33.3185 29.8087 33.3693 29.7421 33.39 29.6641C33.4107 29.5861 33.3996 29.5031 33.3591 29.4334C33.3185 29.3636 33.252 29.3128 33.174 29.2921Z" fill="#e8f5fe"/><path d="M3.30002 32.8199H1.08002V31.1399H3.30002C3.5228 31.1399 3.73646 31.2284 3.89399 31.3859C4.05152 31.5435 4.14002 31.7571 4.14002 31.9799C4.14002 32.2027 4.05152 32.4163 3.89399 32.5739C3.73646 32.7314 3.5228 32.8199 3.30002 32.8199Z" fill="#ffb81c"/><path d="M43.2 36.18C42.9265 35.2123 42.3446 34.3604 41.5426 33.7536C40.7407 33.1469 39.7626 32.8186 38.757 32.8186C37.7514 32.8186 36.7733 33.1469 35.9713 33.7536C35.1694 34.3604 34.5875 35.2123 34.314 36.18H14.463C14.1895 35.2123 13.6076 34.3604 12.8056 33.7536C12.0037 33.1469 11.0256 32.8186 10.02 32.8186C9.01439 32.8186 8.03628 33.1469 7.23434 33.7536C6.43239 34.3604 5.85046 35.2123 5.57699 36.18H0.23999C0.23999 36.8484 0.505489 37.4894 0.978081 37.9619C1.45067 38.4345 2.09164 38.7 2.75999 38.7H5.57699C5.85046 39.6677 6.43239 40.5197 7.23434 41.1264C8.03628 41.7332 9.01439 42.0615 10.02 42.0615C11.0256 42.0615 12.0037 41.7332 12.8056 41.1264C13.6076 40.5197 14.1895 39.6677 14.463 38.7H34.317C34.5914 39.6665 35.1735 40.5171 35.975 41.1228C36.7766 41.7285 37.7538 42.0562 38.7585 42.0562C39.7632 42.0562 40.7404 41.7285 41.542 41.1228C42.3435 40.5171 42.9256 39.6665 43.2 38.7H45.477C46.1453 38.7 46.7863 38.4345 47.2589 37.9619C47.7315 37.4894 47.997 36.8484 47.997 36.18H43.2Z" fill="#002f6c"/><path d="M10.02 39.5401C11.1798 39.5401 12.12 38.5999 12.12 37.4401 12.12 36.2803 11.1798 35.3401 10.02 35.3401 8.86019 35.3401 7.91998 36.2803 7.91998 37.4401 7.91998 38.5999 8.86019 39.5401 10.02 39.5401zM38.76 39.5401C39.9198 39.5401 40.86 38.5999 40.86 37.4401 40.86 36.2803 39.9198 35.3401 38.76 35.3401 37.6002 35.3401 36.66 36.2803 36.66 37.4401 36.66 38.5999 37.6002 39.5401 38.76 39.5401z" fill="#fff"/><path d="M21 24.8401H19.32V31.5601H21V24.8401Z" fill="#0091da"/><path d="M39.3 15.6C41.951 15.6 44.1 13.451 44.1 10.8C44.1 8.14903 41.951 6 39.3 6C36.649 6 34.5 8.14903 34.5 10.8C34.5 13.451 36.649 15.6 39.3 15.6Z" fill="#e8f5fe"/></g><defs><clipPath id="clip0"><path fill="#fff" d="M0 0H48V48H0z"/></clipPath></defs></svg>