<?xml version="1.0" encoding="UTF-8"?><svg width="48" height="48" viewBox="0 0 48 48" fill="none" xmlns="http://www.w3.org/2000/svg"><path d="M35.91 4.26005H34.968C34.4781 3.50531 33.8074 2.88495 33.0168 2.45533 32.2262 2.02572 31.3408 1.80047 30.441 1.80005H30.327C29.4272 1.80047 28.5418 2.02572 27.7512 2.45533 26.9606 2.88495 26.2899 3.50531 25.8 4.26005H20.22C19.44 4.26005 18.6919 4.5697 18.14 5.12097 17.5882 5.67224 17.2778 6.42004 17.277 7.20005H38.85C38.85 6.42031 38.5402 5.67251 37.9889 5.12116 37.4375 4.5698 36.6897 4.26005 35.91 4.26005V4.26005zM11.325 40.05V39.375C11.325 38.4799 10.9694 37.6215 10.3365 36.9885 9.70356 36.3556 8.84512 36 7.95001 36 7.05491 36 6.19646 36.3556 5.56353 36.9885 4.93059 37.6215 4.57501 38.4799 4.57501 39.375V40.05C3.67991 40.05 2.82146 40.4056 2.18853 41.0385 1.55559 41.6714 1.20001 42.5299 1.20001 43.425V43.425C1.20001 44.3201 1.55559 45.1786 2.18853 45.8115 2.82146 46.4444 3.67991 46.8 4.57501 46.8H11.325C11.7682 46.8 12.2071 46.7127 12.6166 46.5431 13.026 46.3735 13.3981 46.1249 13.7115 45.8115 14.0249 45.4981 14.2735 45.126 14.4431 44.7166 14.6127 44.3071 14.7 43.8682 14.7 43.425V43.425C14.7 42.9818 14.6127 42.5429 14.4431 42.1334 14.2735 41.724 14.0249 41.3519 13.7115 41.0385 13.3981 40.7251 13.026 40.4765 12.6166 40.3069 12.2071 40.1373 11.7682 40.05 11.325 40.05z" fill="#e8f5fe"/><path d="M16.878 14.8799H10.158V28.3199H16.878V14.8799Z" fill="#005eb8"/><path d="M25.281 16.5601L8.48102 30.0001V46.8001H42.078V30.0001L25.281 16.5601Z" fill="#0091da"/><path d="M33.681 46.8H16.881V30L25.281 23.28L33.681 30V46.8Z" fill="#fff"/><path d="M16.881 46.8V30H33.681L16.881 46.8Z" fill="#e8f5fe"/><path d="M29.478 33.3601H21.078V46.8001H29.478V33.3601Z" fill="#8bbe4b"/><path d="M5.77203 30H8.47203L25.272 16.56L42.072 30H44.772C45.0333 30.0004 45.2883 29.9196 45.5016 29.7688C45.7149 29.6179 45.876 29.4044 45.9627 29.158C46.0494 28.9115 46.0573 28.6441 45.9853 28.393C45.9133 28.1418 45.7651 27.9192 45.561 27.756L25.278 11.52L4.98303 27.756C4.77898 27.9192 4.63071 28.1418 4.55875 28.393C4.48678 28.6441 4.49468 28.9115 4.58134 29.158C4.66801 29.4044 4.82916 29.6179 5.04248 29.7688C5.2558 29.9196 5.51075 30.0004 5.77203 30Z" fill="#002f6c"/></svg>