<?xml version="1.0" encoding="UTF-8"?><svg width="48" height="48" viewBox="0 0 48 48" fill="none" xmlns="http://www.w3.org/2000/svg"><path d="M24 48C37.2548 48 48 37.2548 48 24C48 10.7452 37.2548 0 24 0C10.7452 0 0 10.7452 0 24C0 37.2548 10.7452 48 24 48Z" fill="#e8f5fe"/><path d="M38.4 16.2959H9.59998V30.6959H38.4V16.2959Z" fill="#0091da"/><path d="M38.4 16.2959H28.32C27.1428 22.0495 23.8983 27.1723 19.2 30.6959H38.4V16.2959Z" fill="#005eb8"/><path d="M18 27.0959H12V28.2959H18V27.0959Z" fill="#fff"/><path d="M36 18.696H31.2V19.896H36V18.696Z" fill="#002f6c"/><path d="M30 23.4961H12V24.6961H30V23.4961Z" fill="#fff"/><path d="M30 23.4961H25.587C25.35 23.9041 25.098 24.3031 24.84 24.6961H30V23.4961Z" fill="#e8f5fe"/></svg>