<?xml version="1.0" encoding="UTF-8"?><svg width="48" height="48" viewBox="0 0 48 48" fill="none" xmlns="http://www.w3.org/2000/svg"><path d="M24 48C37.2548 48 48 37.2548 48 24C48 10.7452 37.2548 0 24 0C10.7452 0 0 10.7452 0 24C0 37.2548 10.7452 48 24 48Z" fill="#e8f5fe"/><path d="M25.929 27.87L27.234 19.8L22.434 26.433C22.3386 26.5627 22.26 26.7038 22.2 26.853C22.0917 27.1091 22.0395 27.3854 22.0467 27.6634C22.054 27.9413 22.1207 28.2145 22.2422 28.4645C22.3637 28.7146 22.5373 28.9358 22.7513 29.1133C22.9653 29.2908 23.2148 29.4205 23.483 29.4936C23.7512 29.5668 24.032 29.5817 24.3065 29.5375C24.581 29.4932 24.8428 29.3908 25.0745 29.237C25.3061 29.0832 25.5022 28.8817 25.6496 28.646C25.797 28.4102 25.8922 28.1456 25.929 27.87V27.87Z" fill="#005eb8"/><path d="M32.484 19.116L35.031 16.569C33.584 15.1183 31.8645 13.9678 29.9714 13.1837C28.0784 12.3996 26.049 11.9974 24 12V15.6C25.5761 15.5977 27.1371 15.9072 28.5932 16.5106C30.0492 17.114 31.3715 17.9995 32.484 19.116V19.116Z" fill="#8bbe4b"/><path d="M12.969 16.5691C11.5183 18.0161 10.3678 19.7356 9.5837 21.6287C8.7996 23.5217 8.39732 25.5511 8.39998 27.6001H12C11.9977 26.024 12.3072 24.463 12.9106 23.0069C13.514 21.5509 14.3995 20.2286 15.516 19.1161L12.969 16.5691Z" fill="#e35205"/><path d="M24 15.6V12C21.951 11.9974 19.9216 12.3996 18.0286 13.1837C16.1355 13.9678 14.416 15.1183 12.969 16.569L15.516 19.116C16.6285 17.9995 17.9508 17.114 19.4068 16.5106C20.8629 15.9072 22.4239 15.5977 24 15.6V15.6Z" fill="#ffb81c"/><path d="M35.031 16.5691L32.484 19.1161C33.6005 20.2286 34.486 21.5509 35.0894 23.0069C35.6928 24.463 36.0023 26.024 36 27.6001H39.6C39.6027 25.5511 39.2004 23.5217 38.4163 21.6287C37.6322 19.7356 36.4817 18.0161 35.031 16.5691V16.5691Z" fill="#55951b"/></svg>