<svg xmlns="http://www.w3.org/2000/svg" width="760" height="275" viewBox="0 0 760 275"><rect width="760" height="275" fill="#ade3eb"/><path d="M760,35.1C677.729,57.7,560.925,71.7,459.652,75.71c-106.406,4.218-154.5-2.909-209.749-12C145.779,46.578,39.079,54.931,0,62.531V233.649H760Z" fill="#e0f4f5"/><path d="M528.658,135.783c-.058-.028-21.792-4.539-57.591-2.89-29.281,1.349-71.806,9.7-87.57,3.94-35.037-12.8-58.218-1.6-75.736-4.728-13.575-2.425-38.283-24.533-59.169-32.31C200.751,81.98,175.63,85,145.243,86.661c-63.66,3.475-73.86,21.819-119.617,18.667A166.381,166.381,0,0,0,0,105.515v45.317c80.227,5.173,163.682,6.9,188.371,5.177,30.97-2.159,164.162,25.264,246.143,21.015C507.92,173.22,532.786,137.719,528.658,135.783Z" fill="#ade3eb"/><path d="M278.343,97.014a24.775,24.775,0,1,0-24.81-24.775A24.792,24.792,0,0,0,278.343,97.014Z" fill="#f1b434"/><path d="M280.718,80.652h89.315S368,73.972,357.36,73.74s-9.216-4.485-24.053-7.634c-12.98-2.756-25.508.29-30.574,6.107C297.959,77.693,283.572,73.74,280.718,80.652Z" fill="#fff"/><path d="M668.262,93.227c-49.965,17.075-76.489.263-124.088,9.983-25.076,5.121-25.245,19.7-104.137,29.421-34.323,4.228-60.429,13.27-46.02,18.65,18.231,6.808,142.056,4.269,309.484-7.617l56.5,2.587V62.782C744.842,70.7,702.189,81.634,668.262,93.227Z" fill="#ade3eb"/><path d="M692.516,99.791c-13.937,8.406-42.136,14.714-58.7,17.6s-68.6-6.3-109.888-.788q-41.287,5.516-79.418,28.107l37.342-.263,58.117,9.457c83.291-15.8,197.957-26.135,220.034-31V83.525C739.28,84.351,699.84,95.374,692.516,99.791Z" fill="#e1d8c8"/><path d="M686.933,143.138c-81,3.5-181.5,6.83-239.533,9.982-87.045,4.728-117.55-36.776-154.366-44.657s-53.384,7.356-85.992-.787c-21.7-5.42-44.968-42.819-130.435-23.38C61.7,87.686,15.679,83.075,0,77.788v57.744q7.218,8.991,15.633,19.164c146.328,13.323,278.919,20.328,335.781,21.015,37.453.452,75.844-7.055,106.505-10.771,27.906-3.381,48.571-2.959,72.58-3.414C640.963,159.43,713.771,153.3,686.933,143.138Z" fill="#e1d8c8"/><path d="M750.537,78.78c-51.543,8.669-124.841,35.462-184.273,45.445s-80.452-15.093-123.6-12.084q-43.146,3.007-117.549,64.62L760,184.907V77.575Q755.308,77.979,750.537,78.78Z" fill="#d1baa0"/><path d="M384.1,146.608c-8.043-4.386-12.893-4.383-12.893-4.383l-1.854,1.227a26.069,26.069,0,0,1,11.3,5.419c2.549,2.129,2.771,2.736,2.558,3.639-.362,1.539-6.193,3.642-23.009,4.456-5.583.271-9.922,2.814-10.8,6.33-.451,1.812-.312,5.382,5.676,8.94a5.321,5.321,0,0,1,1.287.971c-1.665,1.381-11.607,2.466-22.346,2.4l-.017,2.831h.3c1.252,0,6.284-.025,11.353-.392,11.126-.8,12.348,1.079,12.817-.605.594-2.14,4.977-1.248,4.166-1.73-3.224-1.916-5.821-4.536-6.582-7.511-.5-1.974,2.221-6.222,6.411-6.425,16.614-.8,24.935-3.748,26.05-9.016C389.183,149.615,385.473,147.357,384.1,146.608Z" fill="#eae3d6"/><path d="M580.9,132.1c-65.284,11.473-76.534-17.7-120.545-7.618-27.494,6.3-59.058,24.746-94.69,53.532L760,184.907V100.712C721.007,101.01,638.9,121.912,580.9,132.1Z" fill="#78573b"/><polygon points="760 174.169 0 177.912 0 275 760 275 760 174.169" fill="#439778"/><path d="M367.677,176.8c7.9,3.885,27.78,8.925,76.97,12.347,87.668,6.1,252.578-2.193,315.353,13.982V173.673Z" fill="#1c573b"/><path d="M360.626,181.6,0,169v39.583c28.2-8.131,92.28-10.919,142.416-10.919C318.566,197.666,360.626,181.6,360.626,181.6Z" fill="#1c573b"/><path d="M371.926,181.655q-57.329-50.961-89.411-59.367c-32.083-8.406-46.283,7.618-73.37,1.576s-26.823-29.158-62.85-34.937-35.5,11.559-76.263,3.415C50.08,88.356,9.907,80.279,0,72.239V180.646Z" fill="#d1baa0"/><path d="M360.626,181.621q-58.959-42.375-94.415-46.2c-36.553-3.941-27.086,1.051-54.962-1.577s-36.29-26.531-70.74-34.411-37.6,7.618-78.892,4.2C45.705,102.321,7.508,97.493,0,91.906v88.74Z" fill="#78573b"/><path d="M272.725,209.226c.021-.944,7.327-2.258,11.117-2.529s6.336.107,5.557,1.656-8.022,4.023-16.708,3.828C270.8,211.213,272.7,210.17,272.725,209.226Z" fill="#1c573b" fill-rule="evenodd"/><path d="M284.425,208.7h-2.006v-9.9h2.006Z" fill="#ab5f60"/><path d="M288.489,174.5a27.279,27.279,0,0,1-3.214-6.693c-.422-1.338-1.095-2.237-1.928-2.393-1.1-.206-2.216.941-2.989,2.84a18.412,18.412,0,0,1-2.884,4.911,8.923,8.923,0,0,0-1.938,5.073,35.1,35.1,0,0,1-.617,5.03,26.364,26.364,0,0,0-.613,5.394c0,7.287,4.081,13.194,9.116,13.194s9.116-5.907,9.116-13.194A28.523,28.523,0,0,0,288.489,174.5Z" fill="#90cab9"/><path d="M287.268,193.341c1.742-4.228.517-10.564-1.276-14.773a26.417,26.417,0,0,1-1.982-7.282c-.163-1.405-.684-2.439-1.534-2.783a2.566,2.566,0,0,0-2.568.766,17.657,17.657,0,0,1-2.434,3.9,8.923,8.923,0,0,0-1.938,5.073,35.1,35.1,0,0,1-.617,5.03,26.364,26.364,0,0,0-.613,5.394c0,7.287,4.081,13.194,9.116,13.194a6.871,6.871,0,0,0,3.977-1.32A9.68,9.68,0,0,1,287.268,193.341Z" fill="#387f5d"/><path d="M520.869,225.6c0-2.2-18.691-5.642-28.411-6.472s-16.282-.083-14.371,3.568,37.8,11.949,42.7,9.792S520.869,227.8,520.869,225.6Z" fill="#1c573b" fill-rule="evenodd"/><path d="M494.278,223.611h-3.5V206.3h3.5Z" fill="#ab5f60"/><path d="M510.348,171.19a7.428,7.428,0,0,1-1.521-6.737,13.526,13.526,0,0,0,.147-6.205,13,13,0,0,0-4.888-7.885,27.747,27.747,0,0,1-8.312-10.073c-1.332-2.677-3.13-4.319-5.109-4.319-2.1,0-4,1.848-5.348,4.821A57.5,57.5,0,0,1,476.2,155.27a17.166,17.166,0,0,0-4.134,11.389,18.37,18.37,0,0,0,.412,3.886,7.411,7.411,0,0,1-.688,4.982,23.373,23.373,0,0,0,6.631,29.407,23.642,23.642,0,0,0,32.688-4.468A23.373,23.373,0,0,0,510.348,171.19Z" fill="#90cab9"/><path d="M478.422,204.934a23.642,23.642,0,0,0,32.688-4.468,23.373,23.373,0,0,0-.762-29.276,7.428,7.428,0,0,1-1.521-6.737,13.526,13.526,0,0,0,.147-6.205,13,13,0,0,0-4.888-7.885,26.684,26.684,0,0,1-6.038-6.252c-2.789-2.085-7.443-3.618-10.7,5.4-4.93,13.666-8.107,11.57-6.75,24.539l.015.142c.609,6.088-.01,11.18-5.085,14.6-2.759,1.857-3.578,5.656-3.3,9.1A23.289,23.289,0,0,0,478.422,204.934Z" fill="#387f5d"/><path d="M69.658,251.674h8.415V275H69.658Z" fill="#ab5f60"/><path d="M73.08,264.8c-19.793-.263-22.725-6.042-33.232-17.863S24.453,215.414,20.3,184.943c-.76-5.578,4.285-35.1,6.6-41.767C40.794,103.115,51.93,15.882,71.614,14.723c17.838-1.051,24.68,68.823,41.785,110.852,2.683,6.594,10.661,14.408,12.706,21.015,10.994,35.509-1.984,82.643-13.2,97.982C104.847,255.605,92.873,265.061,73.08,264.8Z" fill="#90cab9"/><path d="M20.3,184.943c4.154,30.471,9.041,50.172,19.549,61.993s13.439,17.6,33.232,17.863,31.767-9.194,39.83-20.227c.2-.28.41-.573.615-.874q7.7-19.956.851-27.5c-10.783-11.844,6.779-50.173-2.018-59.1s-6.29-4.728-17.042-12.084S86.764,30.221,65.749,33.111c-4.643.638-9.124,5.337-13.3,12.315C43.17,74.785,35.571,118.169,26.9,143.175,24.584,149.843,19.539,179.365,20.3,184.943Z" fill="#387f5d"/><path d="M340.668,217.943C293.9,231.871,259.776,253.42,237.212,275h62.815c9.75-16.643,25.869-32.285,47.374-42.557,24.377-11.644,59.8-32.349,47.991-45.132-7.527-8.035-27.082-10.761-27.082-10.761h-3.835s4.849,2.773,5.125,4.569C397.049,186.709,389.387,203.436,340.668,217.943Z" fill="#d1baa0"/><path d="M760,275V235.809c-31.806-5.821-100.527-11.028-137.286-12.027-71.243-1.937-294.128,22.778-303.562,26.518s-31.034,3.74-68.882,3.74c-39.8,0-117.814,11.135-178.511,20.96Z" fill="#90cab9"/><path d="M373.666,275h104.4c-25.5-16.884-65.048-32.281-123.525-30.248,0,0-68.643,6.638-86.046,8.96,0,0,48.7.852,82.97,11.611A117.167,117.167,0,0,1,373.666,275Z" fill="#eae3d6"/></svg>