<svg width="99" height="24" viewBox="0 0 99 24" fill="none" xmlns="http://www.w3.org/2000/svg">
<mask id="mask0_323_1987" style="mask-type:alpha" maskUnits="userSpaceOnUse" x="0" y="4" width="10" height="15">
<path d="M0 4H9.87973V18.4017H0V4Z" fill="white"/>
</mask>
<g mask="url(#mask0_323_1987)">
<path fill-rule="evenodd" clip-rule="evenodd" d="M9.87976 4H4.09676V4.49389H5.93826V14.0901C5.93826 16.9739 5.13842 17.786 3.35528 17.786C2.23344 17.786 2.04872 16.9342 2.04872 16.4935C2.04872 15.4441 1.99099 14.8021 1.03464 14.8021C0.0737957 14.8021 -0.0384521 15.7732 -0.0384521 16.0695C-0.0384521 17.3902 0.549726 18.4017 3.1744 18.4017C6.30451 18.4017 7.97796 17.3453 7.97796 13.8368V4.49068L9.87976 4.49389V4Z" fill="black"/>
</g>
<path fill-rule="evenodd" clip-rule="evenodd" d="M10.6571 16.1747C10.3344 16.1747 10.0682 16.2773 9.85209 16.4986C9.62888 16.7205 9.51855 16.9835 9.51855 17.3036C9.51855 17.6217 9.62888 17.8828 9.85466 18.0932C10.0779 18.3138 10.3453 18.4203 10.6571 18.4203C10.9739 18.4203 11.2408 18.3138 11.4697 18.0932C11.6904 17.8828 11.802 17.6217 11.802 17.3036C11.802 16.9809 11.6904 16.7173 11.4697 16.4986C11.2497 16.2773 10.9835 16.1747 10.6571 16.1747Z" fill="black"/>
<path fill-rule="evenodd" clip-rule="evenodd" d="M23.4989 16.1747C23.1807 16.1747 22.9133 16.2773 22.6939 16.4986C22.4739 16.7205 22.3674 16.9835 22.3674 17.3036C22.3674 17.6217 22.4739 17.8828 22.6939 18.0932C22.9287 18.3138 23.1872 18.4203 23.4989 18.4203C23.8215 18.4203 24.0903 18.3138 24.3173 18.0932C24.5412 17.8828 24.6515 17.6217 24.6515 17.3036C24.6515 16.9809 24.5412 16.7173 24.3193 16.4986C24.0941 16.2773 23.8241 16.1747 23.4989 16.1747Z" fill="black"/>
<path fill-rule="evenodd" clip-rule="evenodd" d="M18.696 11.6066H17.5396V4.55611L18.587 4.54264C21.9666 4.54264 22.7036 5.93259 22.7036 8.1846C22.7036 10.4501 21.3752 11.6066 18.696 11.6066ZM19.4689 4L13.8072 4.00128V4.49389H15.471V15.4403C15.471 16.3017 15.4171 16.5256 15.3222 16.7738C15.2189 17.0528 14.9854 17.2722 14.6423 17.4139C14.3864 17.523 13.9977 17.5794 13.4813 17.5942V18.047H19.5767V17.5993C19.0597 17.5852 18.6659 17.5268 18.4074 17.4351C18.0437 17.2908 17.807 17.0791 17.6929 16.793C17.5922 16.5467 17.5396 16.3293 17.5396 15.897V12.1473L19.0482 12.1428C23.4284 12.1428 24.6586 10.4142 24.6586 8.05503C24.6586 5.67089 23.9043 4 19.4689 4Z" fill="black"/>
<path fill-rule="evenodd" clip-rule="evenodd" d="M42.7189 16.7379C42.6387 16.4845 42.6003 16.1766 42.6003 15.7809V4.49389C42.6003 4.49389 44.0864 4.48555 44.0685 4.47978C44.0518 4.47978 44.0685 4.03271 44.0685 4.03271H40.4733C40.4226 4.16292 36.1816 14.7335 36.1816 14.7335C36.163 14.7719 36.1245 14.7963 36.0847 14.7963C36.036 14.7963 35.9975 14.7719 35.9821 14.7335C35.9821 14.7335 31.4621 4.16292 31.4101 4.03271H27.4211V4.48555H29.1523V15.3563C29.1523 15.3563 29.1145 16.3447 29.1145 16.3466C29.0869 16.6083 29.0061 16.8412 28.8772 17.0272C28.7425 17.2286 28.5237 17.3825 28.2389 17.4832C28.0497 17.5454 27.7701 17.5865 27.4211 17.5942V18.047H31.3793V17.6C31.0426 17.5865 30.897 17.5525 30.6994 17.4871C30.4089 17.3921 30.1908 17.2478 30.0465 17.0406C29.9188 16.8489 29.8342 16.6186 29.8053 16.3466C29.8053 16.3466 29.761 15.3576 29.761 15.3563V5.96723H29.9939C29.9939 5.96723 35.1124 17.9162 35.1662 18.047H35.5934L40.438 6.09936H40.5605V15.7809C40.5605 16.1952 40.5176 16.5153 40.438 16.7635C40.3431 17.0528 40.1366 17.2722 39.837 17.4197C39.6151 17.5178 39.2758 17.5762 38.8294 17.5942V18.047H44.3539V17.5942C43.9126 17.5724 43.5707 17.5134 43.3392 17.4101C43.0178 17.2523 42.81 17.0272 42.7189 16.7379Z" fill="black"/>
<path fill-rule="evenodd" clip-rule="evenodd" d="M50.1119 17.8379C47.8951 17.8379 47.5539 16.7308 47.5539 13.1818C47.5539 10.4385 47.7245 8.37956 50.1119 8.37956C52.6903 8.37956 52.7025 10.511 52.7025 13.0093C52.7025 16.5999 52.0893 17.8379 50.1119 17.8379ZM50.151 7.75867C47.2024 7.75867 45.3525 9.71306 45.3525 13.1267C45.3525 18.1278 49.244 18.4581 50.0843 18.4581C51.7475 18.4581 54.9 17.421 54.9 13.0324C54.9 9.61621 52.8841 7.75867 50.151 7.75867Z" fill="black"/>
<path fill-rule="evenodd" clip-rule="evenodd" d="M62.6138 7.91138C60.8505 7.91138 60.3002 8.95368 59.8147 10.0146C59.8147 10.0146 59.687 10.005 59.6748 10.0101C59.6607 10.0146 59.4221 8.4662 59.3323 8.0108C58.6434 8.0108 55.9187 8.00374 55.9187 8.00374V8.52778H57.766C57.766 8.52778 57.7551 10.096 57.7551 10.6611V15.4628C57.7551 16.1504 57.6787 16.6295 57.5306 16.9207C57.3414 17.2626 56.9187 17.4351 56.2176 17.4351H55.9187V18.047H61.6369V17.4351H61.3303C60.5792 17.4351 60.2553 17.2722 60.0539 16.9464C59.8717 16.6603 59.7903 16.1747 59.7903 15.4628V11.8612C59.7903 10.6477 60.7043 9.26477 61.8011 9.26477C62.9461 9.26477 62.9185 11.0287 64.2173 10.3193C64.9229 9.93312 64.8049 7.91138 62.6138 7.91138Z" fill="black"/>
<path fill-rule="evenodd" clip-rule="evenodd" d="M82.3996 15.9572C82.3996 15.9932 82.3957 16.0163 82.3656 16.0368L82.3219 16.0772C81.3425 16.9662 80.5946 17.2831 80.0468 17.2831C78.6454 17.2831 78.435 16.1157 78.435 15.532C78.435 13.6616 80.9968 12.7264 82.3996 12.7264V15.9572ZM85.3956 17.0201C84.7837 17.0201 84.5894 16.6795 84.5445 16.1125C84.5445 16.1125 84.5085 14.829 84.5085 14.8271V10.6213C84.5085 9.71306 84.3623 9.10179 83.8261 8.56749C83.2995 8.03191 82.2796 7.75867 80.805 7.75867C79.3894 7.75867 78.3381 8.02036 77.6698 8.5335C77.0168 9.02931 76.7621 9.48921 76.7621 10.1467C76.7621 10.4526 76.8443 10.6681 77.0168 10.8124C77.1887 10.9657 77.3914 11.0357 77.6396 11.0357C78.2073 11.0357 78.5273 10.7464 78.6453 9.99978C78.7326 9.44431 78.8532 9.12809 79.1271 8.83881C79.4183 8.5335 79.8749 8.37956 80.4913 8.37956C81.2078 8.37956 81.7158 8.57262 82 8.95876C82.2623 9.32116 82.3996 9.81505 82.3996 10.425V12.1094C80.567 12.2749 76.2407 12.6225 76.4337 15.9175C76.5056 17.2074 77.6422 18.3395 79.111 18.3395C80.7364 18.3395 81.7646 17.4139 82.4618 16.6737C82.5734 17.3754 83.2257 18.2138 84.4085 18.2138C85.7401 18.2138 86.5361 17.5608 86.6284 15.9284H86.2859C86.1961 16.6378 85.7574 17.0201 85.3956 17.0201Z" fill="black"/>
<path fill-rule="evenodd" clip-rule="evenodd" d="M97.1219 16.9483C96.9257 16.6603 96.764 16.1766 96.764 15.4563L96.791 10.9068C96.791 10.2487 96.7018 9.6855 96.4555 9.22368C96.206 8.77469 95.8545 8.43346 95.419 8.2096C94.9758 7.98703 94.4671 7.87671 93.9091 7.87671C91.8995 7.87671 91.0933 9.1031 90.6539 9.82405L90.4698 9.81763L90.1119 7.99281L87.0023 7.98703V8.51107C87.5866 8.5348 88.5597 8.54506 88.5597 8.54506V15.4512C88.5597 15.9881 88.5173 16.3736 88.4385 16.6295C88.3564 16.9354 88.1582 17.149 87.8637 17.2722C87.6758 17.353 87.3801 17.3973 87.0023 17.4139V18.047H91.9457V17.4101C91.4486 17.3697 91.1119 17.235 90.9348 16.981C90.7418 16.7103 90.6539 16.2427 90.6539 15.5609V12.9086C90.6539 11.799 90.6481 10.7278 91.0259 10.0652C91.4345 9.3417 92.1818 8.94338 93.0194 8.94338C93.7725 8.94338 94.1682 9.18456 94.4164 9.66305C94.6185 10.0518 94.7506 11.2082 94.7506 12.0049L94.7263 15.2908C94.7263 15.8386 94.7955 16.2427 94.7506 16.5031C94.6942 16.8046 94.5576 17.0406 94.3196 17.1971C94.147 17.3164 93.8757 17.3786 93.5268 17.4043V18.047H98.2919V17.4139C97.6883 17.3754 97.2945 17.2286 97.1219 16.9483Z" fill="black"/>
<path fill-rule="evenodd" clip-rule="evenodd" d="M69.8219 14.6712C68.5218 14.6712 67.7777 14.1991 67.7777 11.5533C67.7777 9.68547 68.4288 8.29616 69.8219 8.29616C71.4441 8.29616 71.9187 9.56104 71.9187 11.5135C71.9187 14.3056 71.0393 14.6712 69.8219 14.6712ZM74.7396 7.35328C74.4452 7.44629 74.249 7.70863 74.1457 8.15249C74.0681 8.56107 73.9129 8.79775 73.7063 8.86382C73.4992 8.92411 73.2689 8.90679 72.9931 8.8125C72.4819 8.33721 71.4979 7.75866 69.7687 7.75866C66.9849 7.75866 65.7566 9.74256 65.7566 11.5533C65.7566 13.6712 66.5719 14.6962 68.3633 15.074C68.4717 15.0958 68.4717 15.217 68.3768 15.2376C66.8489 15.5467 65.4949 15.9944 65.4949 17.4473C65.4949 18.3221 65.9978 18.8019 66.6405 19.0636C67.3505 19.3523 68.3473 19.5017 69.6 19.5242C70.6955 19.5363 71.4716 19.5748 71.9771 19.6351C72.5236 19.6973 72.9559 19.8532 73.2759 20.086C73.605 20.3413 73.7788 20.7165 73.7788 21.2072C73.7788 21.8794 73.4203 22.4195 72.7038 22.8191C72.0367 23.1911 71.1259 23.3861 69.9932 23.3861C69.0214 23.3861 68.2261 23.2803 67.509 22.8332C66.9759 22.5042 66.8727 21.8563 66.9849 21.3913C67.0831 20.9192 66.9144 20.4228 66.3685 20.3304C66.0671 20.2791 65.6886 20.4433 65.5142 20.7165C65.35 20.9693 65.2922 21.2714 65.2922 21.6325C65.2922 22.8274 66.2152 23.3861 66.9201 23.5927C67.9958 23.9204 68.7091 24 69.6981 24C71.0092 24 72.0739 23.7992 72.8346 23.4137C73.596 23.0289 74.1265 22.5593 74.4106 22.0186C74.7089 21.4734 74.8519 20.9173 74.8519 20.3837C74.8519 19.6621 74.6935 19.0732 74.3849 18.639C73.3901 17.2721 71.9771 17.4472 68.8008 17.2959C67.2723 17.2959 66.9779 17.0201 66.9779 16.5499C66.9779 15.8604 67.5442 15.5891 69.7558 15.2491C71.9341 14.9117 73.9623 14.1125 73.9623 11.4532C73.9623 10.6886 73.7833 10.0312 73.5684 9.57194C74.0187 9.67136 74.4382 9.67136 74.8211 9.54628C75.2605 9.40966 75.5459 9.18901 75.7114 8.88178C75.8762 8.57133 75.9141 8.28077 75.823 7.99598C75.6351 7.4001 75.2804 7.18651 74.7396 7.35328Z" fill="black"/>
</svg>
