<?xml version="1.0" encoding="UTF-8"?><svg width="48" height="48" viewBox="0 0 48 48" fill="none" xmlns="http://www.w3.org/2000/svg"><path d="M24 48C37.2548 48 48 37.2548 48 24C48 10.7452 37.2548 0 24 0C10.7452 0 0 10.7452 0 24C0 37.2548 10.7452 48 24 48Z" fill="#e8f5fe"/><path d="M36.3 9.08688C36.1412 8.81129 35.8794 8.61004 35.5723 8.52735 35.2651 8.44466 34.9377 8.48729 34.662 8.64588L22.2 15.8459C22.0634 15.9248 21.9437 16.0298 21.8477 16.155 21.7518 16.2802 21.6814 16.4231 21.6407 16.5756 21.6001 16.728 21.5898 16.8869 21.6106 17.0433 21.6314 17.1997 21.6829 17.3504 21.762 17.4869L22.362 18.5249 36.909 10.1249 36.3 9.08688zM41.1 17.4001L38.1 12.2041 23.553 20.6041 26.562 25.8001C26.7213 26.0752 26.9833 26.2758 27.2904 26.3579 27.5975 26.44 27.9246 26.3969 28.2 26.2381L40.671 19.0381C40.9445 18.8773 41.1432 18.6146 41.2236 18.3077 41.304 18.0007 41.2596 17.6744 41.1 17.4001V17.4001z" fill="#fff"/><path d="M13.134 16.245C12.7789 16.334 12.4685 16.5498 12.2615 16.8517C12.0545 17.1537 11.965 17.521 12.01 17.8843C12.055 18.2477 12.2314 18.582 12.5058 18.8244C12.7803 19.0667 13.1339 19.2003 13.5 19.2H25.893V12.825L13.134 16.245Z" fill="#002f6c"/><path d="M22.9636 8.99928L15.7636 21.47C15.4322 22.044 15.6289 22.7779 16.2028 23.1093L24.5166 27.9093C25.0906 28.2406 25.8245 28.044 26.1559 27.47L33.3559 14.9993C33.6873 14.4253 33.4906 13.6914 32.9166 13.36L24.6028 8.56005C24.0289 8.22868 23.2949 8.42533 22.9636 8.99928Z" fill="#0091da"/><path d="M31.968 17.3999H18.111L17.073 19.1999H30.927L31.968 17.3999Z" fill="#005eb8"/><path d="M25.6418 9.16049L17.2418 23.7097L19.3202 24.9097L27.7202 10.3605L25.6418 9.16049Z" fill="#002f6c"/><path d="M28.3773 12.8177L26.8773 15.4158L28.4362 16.3158L29.9362 13.7177L28.3773 12.8177Z" fill="#ffb81c"/><path d="M34.8 36H13.2C12.8817 36 12.5765 35.8735 12.3515 35.6485C12.1264 35.4234 12 35.1182 12 34.8V17.7C12 18.0978 12.158 18.4793 12.4393 18.7606C12.7206 19.0419 13.1022 19.2 13.5 19.2H34.8C35.1183 19.2 35.4235 19.3264 35.6485 19.5514C35.8736 19.7765 36 20.0817 36 20.4V24.6L35.4 27.6L36 30.6V34.8C36 35.1182 35.8736 35.4234 35.6485 35.6485C35.4235 35.8735 35.1183 36 34.8 36Z" fill="#0091da"/><path d="M29.4 24.6001H36V30.6001H29.4C28.6044 30.6001 27.8413 30.284 27.2787 29.7214C26.7161 29.1588 26.4 28.3957 26.4 27.6001V27.6001C26.4 26.8044 26.7161 26.0414 27.2787 25.4788C27.8413 24.9162 28.6044 24.6001 29.4 24.6001V24.6001Z" fill="#fff"/><path d="M29.4 29.4C30.3941 29.4 31.2 28.5942 31.2 27.6C31.2 26.6059 30.3941 25.8 29.4 25.8C28.4059 25.8 27.6 26.6059 27.6 27.6C27.6 28.5942 28.4059 29.4 29.4 29.4Z" fill="#002f6c"/><path d="M15 37.8C17.651 37.8 19.8 35.6509 19.8 33C19.8 30.349 17.651 28.2 15 28.2C12.349 28.2 10.2 30.349 10.2 33C10.2 35.6509 12.349 37.8 15 37.8Z" fill="#8bbe4b"/><path d="M15 34.5779L13.146 35.5529L13.5 33.4889L12 32.0249L14.073 31.7249L15 29.8469L15.927 31.7249L18 32.0249L16.5 33.4889L16.854 35.5529L15 34.5779Z" fill="#fff"/></svg>