<?xml version="1.0" encoding="UTF-8"?><svg width="48" height="48" viewBox="0 0 48 48" fill="none" xmlns="http://www.w3.org/2000/svg">
<path d="M45.84 25.5389C45.84 32.1149 42.384 37.7639 37.44 40.2389C32.496 37.7639 29.04 32.1149 29.04 25.5389L37.44 20.6399L45.84 25.5389Z" fill="#e8f5fe"/>
<path d="M18.96 25.5389C18.96 32.1149 15.504 37.7639 10.56 40.2389C5.61597 37.7639 2.15997 32.1149 2.15997 25.5389L10.56 20.6399L18.96 25.5389Z" fill="#e8f5fe"/>
<path d="M39.12 16.02C39.12 27.858 32.898 38.025 24 42.48C15.102 38.025 8.88 27.858 8.88 16.02L24 7.19995L39.12 16.02Z" fill="#0091da"/>
<path d="M24 7.19995V42.48C30.6 39.18 35.7 32.754 37.917 24.84C38.718 21.9686 39.1217 19.001 39.117 16.02L24 7.19995Z" fill="#005eb8"/>
<path d="M24 37.6259L23.544 37.3259C17.865 33.4469 14.019 26.5679 13.254 18.9269L13.2 18.3959L24 12.0959L34.8 18.3959L34.749 18.9149C33.984 26.5559 30.138 33.4349 24.459 37.3139L24 37.6259ZM14.922 19.2689C15.732 26.0249 19.089 32.0789 24 35.6549C28.911 32.0789 32.268 26.0249 33.078 19.2689L24 13.9739L14.922 19.2689Z" fill="#ffb81c"/>
<path d="M34.776 18.918L34.83 18.378L24 12.063V14.007L33.045 19.284C32.232 26.019 28.89 32.049 24 35.616V37.662L24.474 37.338C30.159 33.456 34.008 26.568 34.776 18.918Z" fill="#fba14b"/>
</svg>
