<?xml version="1.0" encoding="UTF-8"?><svg width="48" height="48" viewBox="0 0 48 48" fill="none" xmlns="http://www.w3.org/2000/svg">
<path d="M44.79 46.47C44.5673 46.472 44.3465 46.4295 44.1404 46.345C43.9344 46.2605 43.7473 46.1357 43.59 45.978L34.086 36.474C33.7709 36.159 33.5939 35.7316 33.5939 35.286C33.5939 34.8405 33.7709 34.4131 34.086 34.098C34.4011 33.783 34.8284 33.606 35.274 33.606C35.7196 33.606 36.1469 33.783 36.462 34.098L45.966 43.602C46.2017 43.8377 46.362 44.1382 46.4265 44.4652C46.4909 44.7922 46.4566 45.1311 46.328 45.4385C46.1993 45.746 45.9821 46.0083 45.704 46.192C45.4258 46.3757 45.0993 46.4725 44.766 46.47H44.79Z" fill="#e8f5fe"/>
<path d="M12.714 14.4001C12.4913 14.4022 12.2704 14.3598 12.0643 14.2753C11.8582 14.1908 11.6711 14.066 11.514 13.9081L2.02199 4.39812C1.70692 4.08304 1.52991 3.6557 1.52991 3.21012C1.52991 2.76453 1.70692 2.33719 2.02199 2.02211C2.33707 1.70704 2.76441 1.53003 3.20999 1.53003C3.65558 1.53003 4.08292 1.70704 4.39799 2.02211L13.902 11.5261C14.1377 11.7618 14.298 12.0623 14.3624 12.3893C14.4269 12.7163 14.3926 13.0551 14.264 13.3626C14.1353 13.6701 13.9181 13.9324 13.6399 14.1161C13.3618 14.2997 13.0353 14.3965 12.702 14.3941L12.714 14.4001Z" fill="#e8f5fe"/>
<path d="M16.872 25.9651C15.9895 25.9668 15.1154 25.7942 14.2999 25.4569C13.4843 25.1197 12.7435 24.6246 12.12 24.0001L7.96202 19.8421C7.33793 19.2181 6.84288 18.4772 6.50513 17.6619C6.16737 16.8465 5.99353 15.9726 5.99353 15.0901C5.99353 14.2075 6.16737 13.3336 6.50513 12.5183C6.84288 11.7029 7.33793 10.9621 7.96202 10.3381L10.338 7.96208C11.5994 6.70389 13.3084 5.99731 15.09 5.99731C16.8717 5.99731 18.5806 6.70389 19.842 7.96208L24 12.1201C25.2582 13.3815 25.9648 15.0904 25.9648 16.8721C25.9648 18.6537 25.2582 20.3626 24 21.6241L21.624 24.0001C21.0005 24.6246 20.2597 25.1197 19.4442 25.4569C18.6286 25.7942 17.7545 25.9668 16.872 25.9651ZM15.09 9.35708C14.6489 9.35633 14.212 9.44259 13.8043 9.61092C13.3966 9.77926 13.0261 10.0264 12.714 10.3381L10.338 12.7141C10.026 13.0261 9.77845 13.3965 9.60957 13.8042C9.44069 14.2119 9.35377 14.6488 9.35377 15.0901C9.35377 15.5313 9.44069 15.9683 9.60957 16.376C9.77845 16.7837 10.026 17.1541 10.338 17.4661L14.496 21.6241C15.1265 22.2535 15.9811 22.6071 16.872 22.6071C17.763 22.6071 18.6175 22.2535 19.248 21.6241L21.624 19.2481C22.2535 18.6176 22.607 17.763 22.607 16.8721C22.607 15.9811 22.2535 15.1266 21.624 14.4961L17.466 10.3381C17.154 10.0262 16.7836 9.77904 16.3758 9.61069C15.9681 9.44235 15.5311 9.35616 15.09 9.35708V9.35708Z" fill="#005eb8"/>
<path d="M32.91 41.9999C32.0276 42.001 31.1536 41.828 30.3382 41.4909C29.5228 41.1537 28.7819 40.6589 28.158 40.0349V40.0349L24 35.8799C22.7418 34.6185 22.0352 32.9096 22.0352 31.1279C22.0352 29.3463 22.7418 27.6374 24 26.3759L26.376 23.9999C27.6374 22.7417 29.3463 22.0352 31.128 22.0352C32.9096 22.0352 34.6186 22.7417 35.88 23.9999L40.038 28.1579C40.6621 28.7819 41.1571 29.5228 41.4949 30.3381C41.8326 31.1535 42.0065 32.0274 42.0065 32.9099C42.0065 33.7925 41.8326 34.6664 41.4949 35.4817C41.1571 36.2971 40.6621 37.0379 40.038 37.6619L37.662 40.0379C37.0376 40.6611 36.2966 41.1551 35.4812 41.4918C34.6658 41.8284 33.7921 42.0011 32.91 41.9999V41.9999ZM30.534 37.6589C31.1653 38.2869 32.0195 38.6395 32.91 38.6395C33.8004 38.6395 34.6547 38.2869 35.286 37.6589L37.662 35.2829C37.974 34.9709 38.2216 34.6005 38.3904 34.1928C38.5593 33.7851 38.6462 33.3482 38.6462 32.9069C38.6462 32.4657 38.5593 32.0287 38.3904 31.621C38.2216 31.2133 37.974 30.8429 37.662 30.5309L33.504 26.3759C32.8735 25.7465 32.0189 25.3929 31.128 25.3929C30.237 25.3929 29.3825 25.7465 28.752 26.3759L26.376 28.7519C25.7465 29.3824 25.393 30.237 25.393 31.1279C25.393 32.0189 25.7465 32.8734 26.376 33.5039L30.534 37.6619V37.6589Z" fill="#002f6c"/>
<path d="M28.752 30.432C28.5294 30.4336 28.3086 30.3909 28.1026 30.3064C27.8966 30.222 27.7095 30.0974 27.552 29.94L18.06 20.436C17.7449 20.1209 17.5679 19.6935 17.5679 19.248C17.5679 18.8024 17.7449 18.375 18.06 18.06C18.3751 17.7449 18.8024 17.5679 19.248 17.5679C19.6936 17.5679 20.1209 17.7449 20.436 18.06L29.94 27.564C30.1757 27.7996 30.336 28.1001 30.4005 28.4271C30.4649 28.7542 30.4306 29.093 30.302 29.4005C30.1733 29.7079 29.9561 29.9702 29.678 30.1539C29.3998 30.3376 29.0733 30.4344 28.74 30.432H28.752Z" fill="#0091da"/>
</svg>
