<?xml version="1.0" encoding="UTF-8"?><svg width="48" height="48" viewBox="0 0 48 48" fill="none" xmlns="http://www.w3.org/2000/svg">
<g clip-path="url(#clip0)">
<path d="M23.97 6L-3.07071e-05 6C-3.08881e-05 5.57072 0.0845727 5.14565 0.248942 4.74908C0.413312 4.35251 0.654226 3.99223 0.957913 3.68882C1.2616 3.38541 1.6221 3.14483 2.01882 2.98082C2.41554 2.81682 2.84069 2.73261 3.26997 2.733L20.703 2.733C21.5694 2.733 22.4004 3.0772 23.0131 3.68988C23.6258 4.30256 23.97 5.13354 23.97 6V6Z" fill="#e8f5fe"/>
<path d="M15.471 6L3.34501 6C3.34501 4.4087 3.97715 2.88258 5.10237 1.75736C6.22758 0.632141 7.75371 -2.38419e-07 9.34501 -2.38419e-07H9.47101C11.0623 -2.38419e-07 12.5884 0.632141 13.7136 1.75736C14.8389 2.88258 15.471 4.4087 15.471 6V6Z" fill="#e8f5fe"/>
<path d="M42.537 43.4999C44.5666 43.4999 46.212 41.8545 46.212 39.8249C46.212 37.7953 44.5666 36.1499 42.537 36.1499H35.187C33.1573 36.1499 31.512 37.7953 31.512 39.8249C31.512 41.8545 33.1573 43.4999 35.187 43.4999H42.537Z" fill="#e8f5fe"/>
<path d="M35.19 39.0899C35.19 41.1195 36.8353 42.7649 38.865 42.7649C40.8946 42.7649 42.54 41.1195 42.54 39.0899V35.4149C42.54 33.3852 40.8946 31.7399 38.865 31.7399C36.8353 31.7399 35.19 33.3852 35.19 35.4149V39.0899Z" fill="#e8f5fe"/>
<path d="M13.86 24.1799H10.5V37.6199H13.86V24.1799Z" fill="#0091da"/>
<path d="M27.3 24.1799H23.94V37.6199H27.3V24.1799Z" fill="#0091da"/>
<path d="M23.94 24.1799V30.8999L27.3 34.2599V24.1799H23.94Z" fill="#005eb8"/>
<path d="M20.58 24.1799H17.22V37.6199H20.58V24.1799Z" fill="#0091da"/>
<path d="M34.02 24.1799H30.66V37.6199H34.02V24.1799Z" fill="#005eb8"/>
<path d="M13.86 24.1799H10.5V27.5399H13.86V24.1799Z" fill="#002f6c"/>
<path d="M27.3 24.1799H23.94V27.5399H27.3V24.1799Z" fill="#002f6c"/>
<path d="M20.58 24.1799H17.22V27.5399H20.58V24.1799Z" fill="#002f6c"/>
<path d="M34.02 24.1799H30.66V27.5399H34.02V24.1799Z" fill="#002f6c"/>
<path d="M37.38 40.1399H7.14001V43.4999H37.38V40.1399Z" fill="#002f6c"/>
<path d="M35.7 36.78H8.82001V40.14H35.7V36.78Z" fill="#005eb8"/>
<path d="M37.38 21.6599H7.14001V25.0199H37.38V21.6599Z" fill="#0091da"/>
<path d="M7.14001 21.6599H37.38L22.26 9.8999L7.14001 21.6599Z" fill="#0091da"/>
<path d="M12.612 21.66L22.26 14.157L31.908 21.66H12.612Z" fill="#005eb8"/>
<path d="M22.26 20.4C23.1879 20.4 23.94 19.6479 23.94 18.72C23.94 17.7922 23.1879 17.04 22.26 17.04C21.3322 17.04 20.58 17.7922 20.58 18.72C20.58 19.6479 21.3322 20.4 22.26 20.4Z" fill="#ffb81c"/>
<path d="M33.18 46.0201C36.8914 46.0201 39.9 43.0114 39.9 39.3001C39.9 35.5887 36.8914 32.5801 33.18 32.5801C29.4687 32.5801 26.46 35.5887 26.46 39.3001C26.46 43.0114 29.4687 46.0201 33.18 46.0201Z" fill="#ffb81c"/>
<path d="M36.96 38.46H34.02V35.52H32.34V38.46H29.4V40.14H32.34V43.08H34.02V40.14H36.96V38.46Z" fill="white"/>
</g>
<defs>
<clipPath id="clip0">
<rect width="48" height="48" fill="white"/>
</clipPath>
</defs>
</svg>
