<svg id="Icons" xmlns="http://www.w3.org/2000/svg" width="48" height="48" viewBox="0 0 48 48"><circle cx="24" cy="24" r="24" fill="#e8f5fe"/><rect x="10.8" y="14.4" width="24" height="16.8" fill="#002f6c"/><rect x="13.2" y="16.8" width="24" height="16.8" fill="#0091da"/><rect x="26.7" y="25.2" width="8.4" height="6.3" rx="0.6" fill="#002f6c"/><path d="M32.6742,27.9258l-1.5-1.5a.6.6,0,0,0-.8484.8484l.4756.4758H21.9a1.8019,1.8019,0,0,1-1.8-1.8V25.2H18.9v.75a3.0034,3.0034,0,0,0,3,3h8.9014l-.4756.4758a.6.6,0,1,0,.8484.8484l1.5-1.5A.6.6,0,0,0,32.6742,27.9258Z" fill="#fff"/><rect x="15.3" y="18.9" width="8.4" height="6.3" rx="0.6" transform="translate(39 44.1) rotate(180)" fill="#005eb8"/><path d="M28.5,21.45H19.5984l.4758-.4758a.6.6,0,0,0-.8484-.8484l-1.5,1.5a.6.6,0,0,0,0,.8484l1.5,1.5a.6.6,0,0,0,.8484-.8484l-.4758-.4758H28.5a1.8019,1.8019,0,0,1,1.8,1.8v.75h1.2v-.75A3.0034,3.0034,0,0,0,28.5,21.45Z" fill="#ffb81c"/></svg>