<svg id="Icons" xmlns="http://www.w3.org/2000/svg" width="48" height="48" viewBox="0 0 48 48"><circle cx="24" cy="24" r="24" fill="#e8f5fe"/><rect x="7.2" y="22.8" width="10.8" height="10.8" rx="0.6" fill="#fff"/><rect x="30" y="26.4" width="10.8" height="7.2" rx="0.6" fill="#fff"/><rect x="9.6" y="32.4" width="28.8" height="1.2" rx="0.6" transform="translate(48 66) rotate(180)" fill="#005eb8"/><rect x="12" y="14.4" width="24" height="18" rx="1.2" fill="#002f6c"/><rect x="13.2" y="15.6" width="21.6" height="15.6" fill="#e8f5fe"/><polygon points="13.2 31.2 13.2 15.6 28.8 15.6 34.8 15.6 19.2 31.2 13.2 31.2" fill="#fff"/><rect x="15.6" y="18" width="16.8" height="4.8" fill="#0091da"/><rect x="15.6" y="24" width="4.8" height="1.2" fill="#0091da"/><rect x="15.6" y="26.4" width="9.6" height="1.2" fill="#ffb81c"/><polygon points="32.4 22.8 32.4 18 27.6 22.8 32.4 22.8" fill="#005eb8"/><polygon points="25.2 27.6 25.2 26.4 24 26.4 22.8 27.6 25.2 27.6" fill="#fba14b"/></svg>