<svg id="Icons" xmlns="http://www.w3.org/2000/svg" width="48" height="48" viewBox="0 0 48 48"><circle cx="24" cy="24" r="24" fill="#e8f5fe"/><path d="M36.519,36.4382H24.681a1.28,1.28,0,0,1-1.2421-1.5909l.78-3.1217A5.1831,5.1831,0,0,1,29.2477,27.8h2.7046a5.1831,5.1831,0,0,1,5.0284,3.9261l.78,3.1217A1.28,1.28,0,0,1,36.519,36.4382Z" fill="#002f6c"/><path d="M33.84,22.1676c0,2.147-1.45,4.12-3.2395,4.12s-3.24-1.9731-3.24-4.12a3.2631,3.2631,0,1,1,6.479,0Z" fill="#002f6c"/><rect x="7.2" y="34.1129" width="33.6" height="2.4" fill="#8bbe4b"/><path d="M24.8171,36.5129H12.559a2.1,2.1,0,0,1-2.0373-2.6093l.7221-2.8888a6.0472,6.0472,0,0,1,5.8666-4.58h3.1552a6.0471,6.0471,0,0,1,5.8666,4.58l.7222,2.8888A2.1,2.1,0,0,1,24.8171,36.5129Z" fill="#0091da"/><path d="M26.8544,33.9036l-.7222-2.8888a6.0319,6.0319,0,0,0-.66-1.6006l-7.0986,7.0987h6.4438A2.1,2.1,0,0,0,26.8544,33.9036Z" fill="#005eb8"/><path d="M22.4674,19.8639c0,2.5047-1.6921,4.8067-3.7794,4.8067s-3.7794-2.302-3.7794-4.8067A3.9518,3.9518,0,0,1,18.688,15.6,3.9518,3.9518,0,0,1,22.4674,19.8639Z" fill="#0091da"/><path d="M28.8,6H25.2A4.2,4.2,0,0,0,21,10.2h0a4.2,4.2,0,0,0,4.2,4.2h.3v2.4l2.4-2.4h.9A4.2,4.2,0,0,0,33,10.2h0A4.2,4.2,0,0,0,28.8,6Z" fill="#fff"/></svg>